<svg id="Layer_35" enable-background="new 0 0 64 64" height="512" viewBox="0 0 64 64" width="512" xmlns="http://www.w3.org/2000/svg"><path d="m15 52v2h-5-4-3c-.55 0-1-.45-1-1v-2c0-.55.45-1 1-1h5 5c1.1 0 2 .9 2 2z" fill="#cf9e76"/><path d="m62 51v2c0 .55-.45 1-1 1h-3-4-5v-2c0-1.1.9-2 2-2h5 5c.55 0 1 .45 1 1z" fill="#cf9e76"/><path d="m54 54h4v8h-4z" fill="#b27946"/><path d="m6 54h4v8h-4z" fill="#b27946"/><path d="m30 50h4v12h-4z" fill="#b27946"/><path d="m17 45h3 6 6 6 6 2 4c-3.01 0-5.5 2.22-5.93 5.11l-.73-.11h-9.34-4-9.35l-.72.11c-.43-2.89-2.92-5.11-5.93-5.11z" fill="#cf9e76"/><path d="m12.56 45h-10.47c-.06-.32-.09-.66-.09-1v-5.9c0-1.68.68-3.21 1.79-4.31 1.1-1.11 2.63-1.79 4.31-1.79 2.86 0 5.34 1.99 5.96 4.78l.77 3.44c.1.45.5.78.97.78h4.2c.55 0 1.05.22 1.41.59.37.36.59.86.59 1.41 0 1.1-.9 2-2 2h-3-3-1z" fill="#fcd770"/><path d="m51.44 45h-.44-1-4-2c-1.1 0-2-.9-2-2 0-.55.22-1.05.59-1.41.36-.37.86-.59 1.41-.59h4.2c.47 0 .87-.33.97-.78l.77-3.44c.62-2.79 3.1-4.78 5.96-4.78 1.68 0 3.21.68 4.31 1.79 1.11 1.1 1.79 2.63 1.79 4.31v5.9c0 .34-.03.68-.09 1z" fill="#fcd770"/><g fill="#838f9b"><path d="m14 45c3.01 0 5.5 2.22 5.93 5.11.05.29.07.59.07.89v8.5c0 .69-.28 1.32-.73 1.77s-1.08.73-1.77.73c-1.38 0-2.5-1.12-2.5-2.5v-5.5-2c0-1.1-.9-2-2-2h-5c-2.97 0-5.44-2.16-5.91-5h10.47.44z"/><path d="m49 54v5.5c0 1.38-1.12 2.5-2.5 2.5-.69 0-1.32-.28-1.77-.73s-.73-1.08-.73-1.77v-8.5c0-.3.02-.6.07-.89.43-2.89 2.92-5.11 5.93-5.11h1 .44 10.47c-.47 2.84-2.94 5-5.91 5h-5c-1.1 0-2 .9-2 2z"/><path d="m32 37h6v8h-6z"/><path d="m26 37h6v8h-6z"/></g><path d="m22 2v13.27l-7.21-6.55c-.51-.46-1.17-.72-1.85-.72h-.19c-1.52 0-2.75 1.23-2.75 2.75 0 .79.34 1.55.94 2.07l5.92 5.18h-14.86v-16z" fill="#e6e9ed"/><path d="m62 2v16h-14.86l5.92-5.18c.6-.52.94-1.28.94-2.07 0-.76-.31-1.45-.8-1.95-.5-.49-1.19-.8-1.95-.8h-.19c-.68 0-1.34.26-1.85.72l-3.21 2.92v-9.64z" fill="#e6e9ed"/><path d="m16.86 18-5.92-5.18c-.6-.52-.94-1.28-.94-2.07 0-1.52 1.23-2.75 2.75-2.75h.19c.68 0 1.34.26 1.85.72l7.21 6.55 1.18 1.08c1.19 1.07 2.67 1.77 4.25 2l2.91.41c.15.05.3.09.45.12l-.01.12-.78 9 2 2 2-2-.78-9.03h-.61c.36-.04.71-.11 1.05-.21l2.91-.41c1.58-.23 3.06-.93 4.25-2l5.18-4.71 3.21-2.92c.51-.46 1.17-.72 1.85-.72h.19c.76 0 1.45.31 1.95.8.49.5.8 1.19.8 1.95 0 .79-.34 1.55-.94 2.07l-5.92 5.18-7.77 6.8c-.87.76-1.37 1.86-1.37 3.02v9.18h-6-6v-9.18c0-1.16-.5-2.26-1.37-3.02z" fill="#ff826e"/><path d="m32 19c.21 0 .41-.01.61-.03h.61l.78 9.03-2 2-2-2 .78-9 .01-.12c.39.08.79.12 1.21.12z" fill="#e6e9ed"/><circle cx="9" cy="27" fill="#f0d0b4" r="5"/><path d="m32 7c3.31 0 6 2.69 6 6 0 2.74-1.84 5.05-4.34 5.76l-1.66.24-1.66-.24c-2.5-.71-4.34-3.02-4.34-5.76 0-3.31 2.69-6 6-6z" fill="#f0d0b4"/><circle cx="55" cy="27" fill="#f0d0b4" r="5"/><path d="m40.024 25.558 7.495-6.558h15.481v-18h-18v10.194l-4.854 4.413c-.711.645-1.541 1.118-2.435 1.425.809-1.141 1.289-2.53 1.289-4.032 0-3.859-3.141-7-7-7s-7 3.141-7 7c0 1.502.48 2.891 1.288 4.033-.893-.307-1.723-.78-2.434-1.425l-.854-.777v-13.831h-22v18h15.481l7.495 6.558c.651.569 1.024 1.392 1.024 2.257v16.185h-2.184c.112-.314.184-.648.184-1 0-1.654-1.346-3-3-3h-4.197l-.764-3.438c-.415-1.868-1.536-3.395-3.032-4.379 1.787-1.04 2.993-2.971 2.993-5.183 0-3.309-2.691-6-6-6s-6 2.691-6 6c0 1.863.854 3.531 2.19 4.632-2.466 1.115-4.19 3.593-4.19 6.472v5.896c0 1.958.81 3.728 2.111 5h-.111c-1.103 0-2 .897-2 2v2c0 1.103.897 2 2 2h2v6h-2v2h58v-2h-2v-6h2c1.103 0 2-.897 2-2v-2c0-1.103-.897-2-2-2h-.111c1.301-1.272 2.111-3.042 2.111-5v-5.896c0-2.878-1.724-5.357-4.19-6.472 1.336-1.101 2.19-2.769 2.19-4.632 0-3.309-2.691-6-6-6s-6 2.691-6 6c0 2.212 1.206 4.143 2.993 5.184-1.496.984-2.616 2.511-3.032 4.379l-.763 3.437h-4.198c-1.654 0-3 1.346-3 3 0 .352.072.686.184 1h-2.184v-16.185c0-.865.373-1.688 1.024-2.257zm6.976-22.558h14v14h-11.195l3.915-3.426c.813-.712 1.28-1.741 1.28-2.822 0-2.068-1.684-3.752-3.752-3.752h-.185c-.936 0-1.831.347-2.523.976l-1.54 1.4zm-14.036 24.622-.964.964-.964-.964.66-7.637c.101.004.201.015.304.015.102 0 .202-.011.303-.015zm-.964-19.622c2.757 0 5 2.243 5 5 0 2.298-1.567 4.219-3.682 4.801l-1.318.189-1.318-.188c-2.115-.583-3.682-2.504-3.682-4.802 0-2.757 2.243-5 5-5zm-29 9v-14h18v10.012l-5.54-5.037c-.692-.628-1.588-.975-2.523-.975h-.186c-2.068 0-3.751 1.684-3.751 3.752 0 1.081.467 2.11 1.281 2.823l3.914 3.425zm8.599-4.93c-.381-.333-.599-.813-.599-1.318 0-.966.785-1.752 1.751-1.752h.186c.437 0 .854.162 1.178.456l8.396 7.632c1.339 1.216 2.992 1.994 4.78 2.25l2.425.346-.751 8.694 3.035 3.036 3.036-3.036-.752-8.694 2.426-.346c1.788-.256 3.441-1.034 4.781-2.25l8.395-7.632c.323-.294.741-.456 1.177-.456h.185c.966 0 1.752.786 1.752 1.752 0 .505-.218.985-.598 1.317l-13.694 11.983c-1.086.95-1.708 2.322-1.708 3.763v8.185h-10v-8.185c0-1.441-.622-2.813-1.708-3.764zm15.401 25.93h4v6h-4zm-6 21.5v-8.5h8v10h-8.351c.218-.456.351-.961.351-1.5zm10-8.5h2v10h-2zm4 0h8v8.5c0 .539.133 1.044.351 1.5h-8.351zm8.296-2h-22.592c-.344-1.151-.972-2.18-1.81-3h1.106 24 1.105c-.837.82-1.465 1.849-1.809 3zm-34.296-26c2.206 0 4 1.794 4 4s-1.794 4-4 4-4-1.794-4-4 1.794-4 4-4zm-6 15.104c0-2.815 2.289-5.104 5.104-5.104 2.41 0 4.459 1.644 4.982 3.996l.764 3.438c.205.921 1.007 1.566 1.952 1.566h4.198c.552 0 1 .448 1 1s-.448 1-1 1h-7.438c-.46 0-.858-.312-.971-.757l-1.621-6.485-1.94.484 1.621 6.486c.024.095.061.182.093.272h-6.744zm.424 7.896h9.138 1.438c2.757 0 5 2.243 5 5v8.5c0 .827-.673 1.5-1.5 1.5s-1.5-.673-1.5-1.5v-4.5-2-1c0-1.654-1.346-3-3-3h-5c-2.045 0-3.802-1.237-4.576-3zm10.576 9v4.5c0 .539.133 1.044.351 1.5h-3.351v-6zm-11-4h5 5c.552 0 1 .448 1 1v1h-11zm4 4h2v6h-2zm43 0h3v6h-3.351c.218-.456.351-.961.351-1.5zm7 6h-2v-6h2zm4-10v2h-11v-1c0-.552.448-1 1-1h5zm-10-2c-1.654 0-3 1.346-3 3v1 2 4.5c0 .827-.673 1.5-1.5 1.5s-1.5-.673-1.5-1.5v-8.5c0-2.757 2.243-5 5-5h1.438 9.138c-.774 1.763-2.531 3-4.576 3zm4-26c2.206 0 4 1.794 4 4s-1.794 4-4 4-4-1.794-4-4 1.794-4 4-4zm-12 20c0-.552.448-1 1-1h4.198c.944 0 1.747-.645 1.952-1.566l.764-3.438c.524-2.352 2.572-3.996 4.982-3.996 2.815 0 5.104 2.289 5.104 5.104v5.896h-6.744c.032-.09.069-.178.093-.272l1.621-6.485-1.939-.484-1.621 6.484c-.113.445-.512.757-.972.757h-7.438c-.552 0-1-.448-1-1zm-10 1v-6h4v6z"/><path d="m55 13h4v2h-4z"/><path d="m57 9h2v2h-2z"/><path d="m57 5h2v2h-2z"/></svg>